/* XPM */
static char *viewnior[] = {
/* columns rows colors chars-per-pixel */
"32 32 92 1 ",
"  c #542600",
". c #5C2900",
"X c #612B00",
"o c #763400",
"O c #7A3402",
"+ c #7C3807",
"@ c #823305",
"# c #8A3107",
"$ c #863509",
"% c #8D340A",
"& c #82390A",
"* c #89380E",
"= c #93330D",
"- c #873E12",
"; c #8D3C13",
": c #973511",
"> c #9C3411",
", c #9A3815",
"< c #9E3D1C",
"1 c #A12F10",
"2 c #AF2A13",
"3 c #B52A16",
"4 c #B32F19",
"5 c #BB2D1C",
"6 c #A33214",
"7 c #A7361A",
"8 c #A03D1C",
"9 c #B3341E",
"0 c #BA311E",
"q c #AC3D23",
"w c #BE3726",
"e c #B23B23",
"r c #B93B27",
"t c #BE3D2C",
"y c #CA251C",
"u c #C42F21",
"i c #CB2D23",
"p c #D72320",
"a c #DD2424",
"s c #D62B26",
"d c #D52E29",
"f c #DF2D2D",
"g c #C73226",
"h c #CB3026",
"j c #CD342A",
"k c #C33C2D",
"l c #CD382E",
"z c #D6302C",
"x c #DB322F",
"c c #CC3C32",
"v c #D53530",
"b c #DF3131",
"n c #D43C35",
"m c #DD3C3A",
"M c #E03535",
"N c #E13B3B",
"B c #8B4016",
"V c #A24425",
"C c #A9472A",
"Z c #AF492F",
"A c #AB4D32",
"S c #BD4734",
"D c #B2543B",
"F c #CA4337",
"G c #C74638",
"H c #DB403D",
"J c #B65C44",
"K c #CB4F43",
"L c #DB4E49",
"P c #C15443",
"I c #CF5348",
"U c #D0584E",
"Y c #E24343",
"T c #E34B4B",
"R c #E3504F",
"E c #E55454",
"W c #E65B5B",
"Q c #D36157",
"! c #D4645A",
"~ c #DF615D",
"^ c #D4695F",
"/ c #D56D62",
"( c #DA6C64",
") c #D67167",
"_ c #D67268",
"` c #DF7670",
"' c #E76262",
"] c #E86666",
"[ c #E96C6C",
"{ c #EA7373",
"} c #EB7A7A",
"| c None",
/* pixels */
"oooooooooo||||||||||||oooooooooo",
"|-__)/^^QA+|||||||||||%clljhii#|",
"|o`}}}{{[!O||||||||||+eYNMMffso|",
"|+J}}{{{[[+||||||||||OcNNMMff4O|",
"||B{{{{{[[VO|||||||||+NNNMMMf%||",
"||o({{{[[]JO||||||||O8YNNMffso||",
"||+D{{[[[]~o||||||||OtNNMMff4O||",
"|||-[[[[]]';||||||||omNNMMMf%|||",
"|||o![]]]''Z+|||||||%YNNMMMso|||",
"|||+A]]'''WIo||||||OqNNNMMf4O|||",
"||||&]'''WWW+||||||ocNNMMMf%||||",
"||||OU'WWWWE<o|||||OYNNMMfso||||",
"||||+CWWWWEES+||||O,NNMMbf4O||||",
"|||||+WWEEEELo||||OrNNMMbf%|||||",
"|||||OKEEEERT*||||onNMMbfdo|||||",
"|||||OVEEETTTq+|||$NNMMbu@O|||||",
"||||||+RRTTTTFo||O7mb9>0=o||||||",
"||||||OGTTTTYYO||OkM6OoOo|||||||",
"||||||O8TYYYYY:O|ObvO|||||||||||",
"|||||||OTYYYYNrOo:MgO|||||||||||",
"|||||||okYYNNNnOO9MdO|||||||||||",
"|||||||O,YNNNNN$oj6oO|||||||||||",
"||||||||OmNNMMM7@0O|||||||||||||",
"||||||||OwNMMMMg66O|||||||||||||",
"||||||||o:MMMbffu5O|||||||||||||",
"|||||||||Oxbfffffa1Oo|||||||||||",
"|||||||||O5fffffaaa2o|||||||||||",
"|||||||||o=ffaaaaapOO|||||||||||",
"||||||||||osaaaaaapO||||||||||||",
"||||||||||o3aaaaaaa@X|||||||||||",
"||||||||||.#yyyyyyy3o ||||||||||",
"|||||||||||oooooooooo ||||||||||"
};
